<?xml version="1.0" encoding="UTF-8"?>
<svg version="1.1" viewBox="0 0 1600 583" width="400" height="146" xmlns="http://www.w3.org/2000/svg">
<path transform="translate(1178,7)" d="m0 0 8 1 5 6v7l-6 12-5 7 1 1 9-2h10l3 3 1 7-3 7-1 6 9 2 6 3h6l2-7 4-6 5-4 20-8 15-7 13-4h41l19 5 26 7 31 12 40 20 24 14 16 10 11 8 4 4v7l5 2 31 11 16 8 16 10 12 11 6 9 1 8-4 5h-6l-8-5-2-6-12-5-3-1h-15l6 8 8 3 4 10 5 16 3 15v26l-4 16-5 11-6 9-1 3 4-1h32l8 7 4 7v77l5 6 1 71v65l-2 7-9 10-9 11-9 10-8 10-3 2h-326l-109 1h-70l-6-4-10-8-4 2-7 7-9 3h-81l-9-3-7-6-3-5-1-7v-54l-1-30-22 2-1 84-5 10-7 7-6 2h-53l-78-1h-89l-6-3-4-5-3-9-1-36h-12l-18 1-3 39-4 8-5 4h-252l-8-11h-4l-6 9-2 2-5 1h-36l-124-1-13-13-3 3-7 10-40 1h-47l-6-2-8-10-13-18-10-14 2-6 6-15 18-50 18-53 14-41 14-46 9-25 14-43 5-13 3-5 21-1 3-8 7-7 14-10 5-5-13-1-5-3-10-17-16-32-1-4 5-5-3-4-4-13-5-10-3-11 8-9 8-7 20-14 20-12h2l-3-17 5-4 12-5h7l3 4 5 15 33-2h9l4 6 17 49 6 16 2 4 4-5 6-6-1-8-2-6 1-5 5-6 14-8 1-4-3-1-2-5 1-5 8-3 11-1 16-8 13-5h17l8-3 8 1 13 4 5-3 6-6 6 2 17 10 14 11 9 10 9 12 4 12 2 20v10l-4 8-4 6v13l2 19v15l-4 6-7 8 1 5 5 6 17 10 15 10 4 2-3-10-3-18 1-8-5-5-4-5 1-7 4-8 5-4 11-3 4-6 8-16 12-23 10-14 5-4 11-4h2v-12l3-6 7-6 3-1h7l6 4 3 7 1 10 9 2 11 6 9 6 9-12 3-3h7l6 4 6 7 2 6-6 8-3 3h-2v2l4 2 9 11 7 13 4 6-1 9-1 6 3 4-1 7-6 12-24 36-9 16-6 16-5 6-6 3-7 1-4-4-10 4-5 1h-13l-5-2-3-3h-3l-3 11 65 2 4 5 5 1 13-6h6l12 7 5-1 6-4 5-3 59 1 9 5 5-1 1-3 3-1h125v-23l1-15 4-8 6-5 198-1 6 4 7 8 1 2v42l1 5 11-3 5-4 7-11 9-10 7-7 7-8 15-13 11-10 9-14 6-14v-25l-3-10-6-10-6 1-21 14-14 7-12 11-4 8 1 7 4 9-1 5-5 4-4 1h-12l-8-4-10-9-5-1-6 7-2 1h-7l-12-7-10-5-6-7-4-9-1-4v-11l3-7 5-5 21-1 10-9 2-6-1-3v-6l-7-8-2-5 1-5 17-17 7-6 7-10 8-7 17-17 8-7 13-11 7-7 11-8 13 1 7-4 10-7zm-104 92-5 3 4 1 4-4zm-470 8-2 2 5 3h8l4-4-1-1zm650 5m1 1m2 1m-1022 14-4 2 3 10 2 6 1 10 9-3 13-8 2-2-1-7-3-8zm375 55-3 2 5 5 2 1h7l2-2-8-5z" fill="#030203"/>
<path transform="translate(256,248)" d="m0 0h61l4 16 15 48 13 45 10 29 1 2 6 1v-20l1-69 1-42h51l1 1-2 85-1 46-1 81-1 30-1 11-2 1h-55l-4-11-9-29-10-31-9-30-6-19-5-18-7-26-1-2h-3l-1 6-1 18-2 109-2 31-1 1h-39l-13-1v-22l3-62 2-51 2-37 1-44 2-37z" fill="#E4CF7E"/>
<path transform="translate(128,248)" d="m0 0h93v155l-1 108-1 1-7 1h-49l1-85 1-2-10 1h-30l-2 13-16 62-3 10-1 1-64-2 1-7 12-34 10-29 20-60 14-41 12-35 14-43 5-13z" fill="#F07A75"/>
<path transform="translate(531,300)" d="m0 0h56l-1 25 10-7 27-13h3l6 31 1 12h2l2-5 10-15 14-22 4-6h46l9 17 4 4v23l-8 165-1 4h-30l-21-1-1-1 1-30 3-37 1-26 4-39 1-4h-15l-6 24-12 40-6 19-1 1h-22l-3-7-2-12-4-16-8-36-2-8 1-6h-13l-5 101-2 32-2 4h-51v-30l2-25 2-52 5-79z" fill="#E5BE7E"/>
<path transform="translate(1287,248)" d="m0 0h55l1 4v98l1 29 6-3 5-13 12-27 10-23 4-6h51v5l-6 12-13 28-10 23-8 17 1 7 3 7 5 17 6 17 4 13 7 22 4 10 5 16 3 7 2 6h-54l-4-4-6-17-12-39-6-17-2-6v-4h-9v87h-54l-1-1z" fill="#8ED4AE"/>
<path transform="translate(1054,307)" d="m0 0h101l5 5 11 12 2 3v186l-1 1h-52v-10l-5 1-13 8-1 1h-41l-16-12-1-6v-97l2-5 9-10 5-4h62v-28l1-2-7 1-53 2-4 2-4-1z" fill="#8ED5AE"/>
<path transform="translate(883,248)" d="m0 0h171l1 1v55h-58v210h-59v-130l1-79-56-1z" fill="#8ED3AE"/>
<path transform="translate(1557,306)" d="m0 0 3 1v47h-16l-51-3v31l2-1h59l7 7 5 3v100l-7 9h-2l-2 4-8 9-20 1h-83v-57h71l1-30h-62l-2-4-4-2-5-3-1-90 9-11 8-10z" fill="#8396B5"/>
<path transform="translate(745,300)" d="m0 0h111l1 1v32l-1 18h-61v25l-1 5 2-1h61l-1 45-3 2h-58l1 31h60v54l-113 1 1-151z" fill="#F07A75"/>
<path transform="translate(368,258)" d="m0 0h51l1 1-2 85-1 46-1 81-1 30-1 11-2 1h-18l-34-1-3-16-7-22-5-17-8-25-6-22-6-19v-14l9-3h8l11 6 5 6 2 2 6 1v-20l1-69z" fill="#F07975"/>
<path transform="translate(1202,248)" d="m0 0h53l1 1v264l-1 1h-30l-25-1v-263z" fill="#8FD5AE"/>
<path transform="translate(128,248)" d="m0 0h93l-1 153h-1l-2-22-3-5-6-4h-19l-9 3-2 14-1 1h-42l1-6 4-3h30v-15l1-15 1-38 1-7 2-3-5 1-14 1-3 8-7 31-8 33-2 2-1 3-2-5-5-2-2-2-7-1v-1l-8-1-4 3h-2l-1 3h-2l-2 4-7 9-3 1-12 36-16 47-13 38-5 2h-5l1-7 12-34 10-29 20-60 14-41 12-35 14-43 5-13z" fill="#E4CF7E"/>
<path transform="translate(1162,73)" d="m0 0h15l22 8 15 9 18 18 6 9 6 14 4 22 1 7v35l-3 21-2 5-1 1h-68v65l-7-1-9-3-23-2h-15l6-8 24-24 7-8 8-10 9-14 8-18 4-15v-14l-4-13-6-11-8-10-8-7 2-9 1-4-1-14-2-9 1-1-2-1-3-7-4-8z" fill="#E79343"/>
<path transform="translate(1172,327)" d="m0 0h1v186l-1 1h-52v-10l-5 1-13 8-1 1h-41l-8-6v-70l6-3 2-2 8-2v-2l9-4h7l5 5 1 8 1 1 1-17h30l-1 35-26 1-3 7 39-1v-39l8-1 15-3 8 1 8 3 1-12z" fill="#8294B4"/>
<path transform="translate(395,98)" d="m0 0 9 6 1 5-3 7-3 16-1 4h2l2-6 3-7 2-1-2 16 3 5 3 7h10l2-3v-17l-3-7v-3l4 1 4 5 2 5 1 7 1-7h2l4 26 2 18-5 10-8 10-7 7-18 12h-15l-21-6-14-6-11-8-9-10-1-4h-3v2l-2 1h-12l-7-3-5-5-3-8v-7l3-6 6-2 5 2 7 7 5 9 3 4-4-21v-15l5-10 5-4 6-1v3l20-5h5l6 5 3 5 3 2-4-6-1-5v-10l1-1h23z" fill="#E7B07B"/>
<path transform="translate(1421,199)" d="m0 0h6l6 2 10 1 5 3 22 4 34 3 7 2 4 6 1 3v14l-5 12-6 9-10 10-10 5-17 5-16 3-3 1h-35l-25-1-8-1-1-2 1-13 1-6 2-29 3-8h3l1-6 4-8 7-6z" fill="#3F625D"/>
<path transform="translate(448,345)" d="m0 0h17l34 1 1 1v30l-5 134-1 1h-54v-28l2-22 1-4 1-57 3-47z" fill="#F07A75"/>
<path transform="translate(665,300)" d="m0 0h46l9 17 4 4v23l-1 22-1 6-2-3-1-6-5-1-8-3h-24l-9 1h-24l-16 1-11-2v-2h-14l-1 1h-17l-12-1h-40l-1-4v-18l1-19 1-7 46-2 1 1v17l10-7 27-13h3l6 31 1 12h2l2-5 10-15 14-22z" fill="#E4CE7E"/>
<path transform="translate(1372,140)" d="m0 0h13l17 1 22 5 20 6 20 9 14 8 13 9 10 8 7 7-1 2h-31l-17-3-28-9-16-4-16 1-10 4-8 7-6 7-6 12-3 11-1 1h-34l-28-1 1-7 7-32 5-12 6-8 10-9 11-7z" fill="#E79444"/>
<path transform="translate(745,300)" d="m0 0h111l1 1v32l-1 18h-61v25l-1 5 2-1h61l-1 8-4 1h-53l-6-2-1-4-6-5-2-3h-28l-2-1-2 70-1 63-2 6h-6l1-151z" fill="#E3CD7E"/>
<path transform="translate(1287,248)" d="m0 0h55l1 4-1 4-1 118-1 9-1 1-29 1-5-1-8-2-1-1-1 132h-8z" fill="#8ED5AF"/>
<path transform="translate(1111,57)" d="m0 0 1 2-4 6-5 6-4 4 14-6 4-1 3 3 9 3h7l4-2 4 1 2 5 3 5 3 6 1 8-1 8v12l-4 17-4 6-9 8-16 10-14 7-8 12-3 7-4 1-1-7 4-9 7-6h4l1-3 8-6 6-5 7-9 3-4h2l2-11-1-6-1-5 2-3h2v-2l-9 2-4 4 5 1v4l-4 2-1 4h-3v2l6 1-1 5-7 8-9 7-5 5-13 10-15 15-5 4-15 1-2 1-3 6-6-2-3-2-2-6 1-8 2-5-4 1-2 18-1 2-6-2-1-4 5-10-3-1-5 3-1-1v-12l3-3 11 2h6l13-10 6-8 5-14 2-4-1-5-3-4-5-1h-4l1-4 3-3h3v3l5-6 1-2 6-3h-3l2-4 8-10 21-21z" fill="#F9BA51"/>
<path transform="translate(1557,306)" d="m0 0 3 1v47h-16l-51-3v32l-1 5-24-1h-9l-9 1 2 30 2 7 4 1h-5l-1-3-4-2-5-3-1-90 9-11 8-10z" fill="#8ED4AE"/>
<path transform="translate(260,351)" d="m0 0 4 2 21-1v2l4-1 9 9v8h2l-1-9h2l-2 119-2 31-1 1h-39l-9-1 3-1 1-34 5-86 1-3 1-13 4-2 1-9h-4z" fill="#F07A75"/>
<path transform="translate(402,46)" d="m0 0 9 5 13 11 11 13 7 12 1 8-13-1-6-1-9-9h-1l2 8-2 1h-8l-11-6-9-6-3-1v6l-5 3-3 9-3 3h-19l-13-4-10-9h-1l-1 27-3 3-5 1-4-6h-2l-5 8 1 11 2 7-1 8-4 4-6 2-8-13-6-19v-10l3-12v-7h-2l1-5 13-8 4-2-1-4 14-14 10-6 9-3 22-1h14l14 4 7 4 5 1-1-10z" fill="#073146"/>
<path transform="translate(996,350)" d="m0 0h1v164h-57l4-1 1-5 1-27 1-89 5-2 7-4 19-4h10v2l6 2z" fill="#8395B5"/>
<path transform="translate(554,368)" d="m0 0h15l9 3v2h2l-5 102-2 32-2 4h-51v-1l6-1 4-69 5-70z" fill="#F07A75"/>
<path transform="translate(220,252)" d="m0 0h1v151l-1 18h-1l-2-7-2-1v-2h-2l-3-5-8-1-17 4-15 1-4-1h-44l-16 3-5 3h-10l-7 2-3-2 3-11 5-16 6-4 7-10 5-4 4-3 9 1v1l7 2 7 4 1 2 3-6 12-50 4-17 2-2 19-1-2 10-1 38-2 30-30 1-4 4-1 4 42-1 2-14 7-3 8-1h14l8 6 2 4 1 10z" fill="#E7A77C"/>
<path transform="translate(1233,383)" d="m0 0h9l6 3 5 4 1 5 2-4v122l-1 1h-30l-25-1v-1l7-1v-38l1-14 1-71 6-1 9-2z" fill="#8396B5"/>
<path transform="translate(368,258)" d="m0 0h51l1 1-2 85-1 46-1 13-2-3-2-19-3-10-8-4-5-1v2h-8l-9 2-2 2-2-1-1 24-3 1h-9l-3-5v-2h7v-20l1-69z" fill="#E4CE7E"/>
<path transform="translate(680,380)" d="m0 0 2 2 7-1 11-1 11 3v2l6 2 2 5 1 18v17l-4 82-1 4h-30l-21-1v-1h7v-20l5-65 3-29z" fill="#F07A75"/>
<path transform="translate(1162,73)" d="m0 0h15l22 8 15 9 18 18 6 9 6 14 4 22 1 7v35l-3 21-2 5-1 1h-9l-5-1-18-1 1-7 6-14 3-10v-19l-3-11-8-17-9-12-14-15-9-10-14-14v-2h-4l-7-12 2-2z" fill="#FABC50"/>
<path transform="translate(1287,42)" d="m0 0h25l22 3 21 6 11 4 13 4 20 10 22 12 16 8 20 11 21 13-1 2h-18l-16-4-20-8-30-13-23-10-19-8-25-8-16-3h-18l-18 4-13 5-12 4 3 10 7 20 6 22 5 18 2 9v9l-3-4-5-17-6-15-11-21-9-17-6-16v-10l11-5 28-12z" fill="#D5853E"/>
<path transform="translate(226,51)" d="m0 0 4 1-2 4-10 8-4 9-1 2 4-3h2l2-7 7-6 3-4 3 5 13 37 9 28v3l-5 1h-19l2-7v-14l-6-12-2-1h-7l-6 3-3 4-1 3v8l3 11 4 5v2l6 1 5-1 4 10 4 15-1 4-11 7h-4l-12-34-6-25-3-9v-6l6-5 11-5 12-5 1-4-12 4-9 4-10 6-4 4 1 6 8 23 4 18 8 24v5l-3 1v2l4-1-5 5-4 1-3 3-25 4-22 1-5-5-6-10-5-12v-3l3 1 7 14 4 1 29-7h6l2 7 3 2 1 3 5 1-4-7-4-10-3-12-1-6h2l11 25 3 5v2l3-1-3-5-6-17-4-10v-6l4-5 1-6-10-19-6-9-3-5-1-4v-9l15-14 5-2 2-6z" fill="#54ACB8"/>
<path transform="translate(1262,76)" d="m0 0h11l14 9 28 16 23 14 12 8 5 4 5 2-4 2-17 3-17 8-12 9-7 7-7 12-4 12-4 16-5 12-7 8-3 1-1-1v-7l7-25 1-10v-14l-1-17-7-22-3-14-10-27 1-5z" fill="#5C4A3B"/>
<path transform="translate(213,411)" d="m0 0 4 1 3 9v90l-1 1-7 1h-35l-7-1v-15l1-19 1-54 5-3 9-3 10-2 3 1 14-3z" fill="#F07975"/>
<path transform="translate(1391,415)" d="m0 0h7l7 14 2 2 6 19 8 25 4 10 5 16 3 7 2 6h-54l2-1-7-25-11-35v-9l-5-13 2-6 3-2 16-4z" fill="#8396B6"/>
<path transform="translate(1295,414)" d="m0 0 1 4h3v2h10l4-1 30 2 1 4 8 1v5l-1-4h-9v87h-54v-1h7z" fill="#8294B4"/>
<path transform="translate(448,345)" d="m0 0h17l34 1 1 1v30l-2 52-2 1-1-12-3-3h-3l-1 3-13-1v-3l-10-1h-10l-3-2v17l-3 63-1 17-1 3h-7v-27l2-22 1-4 1-57 3-47z" fill="#E8B27D"/>
<path transform="translate(1452,211)" d="m0 0h17l3 1 12 1 9 4 3 4 3 9 1 12-4 8-7 7-5 3-5 5-6 5-13 5-6 2-13-1-10-2-7-3v-2l-4-2-5-12-1-5v-7l3-10 6-8 5-5 5-3 13-4z" fill="#658083"/>
<path transform="translate(1341,256)" d="m0 0h1l1 94v34l8 4h12l3 1h16l12 4 5 13 5 17 1 8-2-3-5-12h-7l-10 4-18 5-2 6 5 13v9l14 45 3 10v5l-5-1-6-16-13-42-6-17-1-11h-10l2-1-1-3-33-2-2 1-9-1v-2h-3l-1-4v-34l4 2 10 2h11l19-1 1-9z" fill="#8BAAB6"/>
<path transform="translate(753,373)" d="m0 0 9 1h23l1 4 4 2 4 3v4l5 1h57v37l-3 2h-60l-1 3-5-1-13-4-2-1v-2l-5-2-4-4-1-3-8-2-1 13h-1v-16z" fill="#E69778"/>
<path transform="translate(1372,140)" d="m0 0h13l17 1 22 5 20 6 20 9 14 8 13 9 10 8 7 7-4 1-2-4-8-7-8-5-18-5-26-11-15-5-19-2-16 1-16 4-13 7-11 11-10 17-8 21-2 5h-29l1-7 7-32 5-12 6-8 10-9 11-7z" fill="#FABD53"/>
<path transform="translate(1292,66)" d="m0 0h19l18 4 20 8 20 9 31 14 28 12v3l-16 6-17 9-11 3-14-7-20-13-15-9-22-13-26-15-8-5 2-3z" fill="#5C4A3B"/>
<path transform="translate(1126,348)" d="m0 0 3 1v38l-3 1h-41l-23 1-7 6-2 5v28h3l2-4 7-4 6-2 12-5h11l16 3 9-2 2-1 24-2 11-3 8 1v2l6 1 1 1v13l-12-4-9 1-14 3h-4l-1 38-2 1h-37l1-5 2-3h26v-30l1-5h-30v17l-1 13h-1l-2-22-4-4h-7l-9 3v2l-9 4-5 3h-2v69l-8-5-1-6v-97l2-5 9-10 5-4h62v-28h2l1-3z" fill="#8CA8B9"/>
<path transform="translate(1447,127)" d="m0 0h16l26 5 16 4 23 8 15 8 13 10 8 7v2l-11-3-9-3-14-1-3-3-25-15v-2l-7-1-2 1 9 8 13 10 8 8 10 14 8 17 2 7 1 9v12l-2 12-5 16-8 14-8 9-8 2-9-1 2-4 9-10 7-11 6-12 3-11v-14l-5-16-6-11-9-12-20-20-4-3v-2l-4-2-9-7-3-1v-2l-5-1-10-6-12-6v-2z" fill="#F8B751"/>
<path transform="translate(455,259)" d="m0 0h53l-1 22-3 38-1 6h-25l-26-1-1-1v-21l3-39z" fill="#E4CF7E"/>
<path transform="translate(396,366)" d="m0 0 8 1 6 4 4 16 1 13 1 3v19l-1 12h-1l-1-11-1-5h-2l-3-5-2-1v-2h-10l-3 2-17 3-19 6-13 2-6 1-1 4-6-21-5-16v-14l9-3h8l11 6 5 6 2 3 2 6h12v-25h4l6-2 9-1 3 1z" fill="#E7A97E"/>
<path transform="translate(635,370)" d="m0 0h13l7 3-2 12v10l-12 41-7 22-1 1h-17l-1-10-10-40-4-19 1-5-1-10 5-3z" fill="#E58673"/>
<path transform="translate(1171,385)" d="m0 0h1v28l-8-2v-2h-8l-11 3-24 2-4 2-7 1-18-3h-9l-24 10-3 4-4 1v-29l3-6 7-6 23-1h46l10 2h11l9-1 9 3z" fill="#8FADBA"/>
<path transform="translate(128,248)" d="m0 0h93l-1 7h-39l-46 1-6 16-14 41-50 150-7 19-9 27-5 2h-5l1-7 12-34 10-29 20-60 14-41 12-35 14-43 5-13z" fill="#F7FAF8"/>
<path transform="translate(339,123)" d="m0 0 1 3 8-1-4 3-2 2 5-2 13-4 5 1 4 5 3 9v14l-5 5-3 1h-9l-4-4-3-8v-9l3-5-4 2-2 3v11l3 10 1 8 7 19 6 8 10 7h-3l1 3 5 3-1-3h2l4 5 3 3-8-1-19-7-10-6-10-9-5-7v-2h-3v2l-2 1h-12l-7-3-5-5-3-8v-7l3-6 6-2 5 2 7 7 5 9 3 4-4-21v-15l5-10 5-4z" fill="#E59876"/>
<path transform="translate(1495,381)" d="m0 0h59l7 7 5 3-2 15-8-1-8-3-10 3-7 1h-30v1l-22 3-9 4-4 5 1 5 27 1v1l-40 1-3-9-1-12v-18l12-2h13l17 2-1-3z" fill="#8FAEBA"/>
<path transform="translate(552,99)" d="m0 0h13l12 2 12 5 14 8 11 8 9 9 6 12 2 6v7l-2 4-8-4-7-8-3-5-8-6-2-4 4-2-2-6-4-4-4-1-4 4-2 5 5-3 5 1v5l-2 1v3l-4 2-9-1-3 7v7l2 2v9l-10-1-14-7-3-3 1-2 10 5 8 2-2-5-7-2-13-1-2-4h17l1-6 4-5 1-5-4-10-1-1h-11l-4-4-5-2h-7l-7 3-1 7 4 9 4 6-1 3-10 1-16-8 1-7 8-15 9-6 11-4z" fill="#536C52"/>
<path transform="translate(886,360)" d="m0 0h25v100l-23 2-1 84h-1l-1-130v-55z" fill="#8CC1B1"/>
<path transform="translate(524,179)" d="m0 0 7 1 2 2 9 1 8 7 6 3v2h7l6 4-1 3-5 2-2 2v5l5-1 6-5 4 1-1 6-3 4-1 3-7-1-5-2-4-5-1-15h-14l-2-2-3 6-6 4-5 4-4-8v-4l2-1 9-1 1-4-1-2-4 2-5 3-6 3-1 4h2l5 13 2 2-1 7 3 5 3 1-2-8h5l2 2-1-6 5-1 3 5-1 5 4 5 4-1 2-4 4 1 7 3v17l-3 4-1 5-9-3-2-2h5v-2h-6l-9-8-2-3-24-1-6-4-12-11-3-5v-6l5-3h2l1-8 5-6 10-4z" fill="#F7F8F4"/>
<path transform="translate(260,351)" d="m0 0 4 2 21-1v2l4-1 9 9v8h2l-1-9h2l-1 63-2 4-3-7-2-6h-14l-14 4-7-1-2-1 1-27 1-3 1-13 4-2 1-9h-4z" fill="#E7A87E"/>
<path transform="translate(1287,42)" d="m0 0h25l22 3 21 6 11 4 13 4 20 10 22 12 16 8 20 11 21 13-1 2h-6l-1-5-12-3-15-4-20-9-29-14-23-10-30-11-16-4-14-2h-21l-15 3-20 7-11 5-4 1-3 6v6l-2-1-3-8v-10l11-5 28-12z" fill="#FABC53"/>
<path transform="translate(256,248)" d="m0 0h61v5l-6 2-48 2-4 115-6 104-1 31-1 3-7 1v-22l3-62 2-51 2-37 1-44 2-37z" fill="#F4F7F5"/>
<path transform="translate(202,404)" d="m0 0 8 1 3 4 1 5-5 2-11 2-3-1-15 4-7 3-1 54-2 35h-7l1-85 1-2-10 1-41 1-4 3h-5l-4-3 1-2-5-2-2-1 4-8 7-4 16-3h49l4 1 15-2z" fill="#E58874"/>
<path transform="translate(1202,248)" d="m0 0h53l1 1-1 7h-31l-15 1-1 216v39h-8v-262z" fill="#FAF6EF"/>
<path transform="translate(745,300)" d="m0 0h111v7l-2-1v-2l-8 2-9 1-58 2h-26l-1 135-1 63-2 6h-6l1-151z" fill="#F0F7F4"/>
<path transform="translate(968,29)" d="m0 0h14l7 3 1 2v9l-1 3h13l2 1 1 7v16l-2 2-11 3-2 10-6 5-2 1h-13l-6-4-2-4 1-9-13-2-2-3v-13l1-8 3-2 10-1 1-10 4-5zm5 9-3 3 1 4h6l3-3-1-4zm-2 40-1 2 3 3h6l1-4-2-1z" fill="#0A0707"/>
<path transform="translate(1287,248)" d="m0 0h55l1 4h-2l-1 4h-34l-11 1-1 256h-7z" fill="#F1F6F2"/>
<path transform="translate(531,300)" d="m0 0h56l-1 8-26 1h-21l-1 26-4 65-4 57-3 52-1 1h-6v-29l2-25 2-52 5-79z" fill="#F4F7F6"/>
<path transform="translate(1295,401)" d="m0 0 11 1 7 3 23 2 21 3 16-1 13-3h9l3 2 1-2 5 17 1 8-2-3-5-12h-7l-10 4-18 5-2 6 5 13v9l14 45 3 10v5l-5-1-6-16-13-42-6-17-1-11h-10l2-1-1-3-33-2-2 1-9-1v-2h-3l-1-4z" fill="#8BA5B9"/>
<path transform="translate(554,368)" d="m0 0h15l9 3v2h2l-3 64-1 9h-1l-1-32h-6l-3 3h-9v-3l-14-2-9-1v-11l2-30z" fill="#E9B47E"/>
<path transform="translate(170,301)" d="m0 0h5l-2 10-1 38-2 30-33 1 1-9 12-50 4-17 2-2z" fill="#030203"/>
<path transform="translate(151,393)" d="m0 0h59l5 5 4 5 1 5v13h-1l-2-7-2-1v-2h-2l-3-5-8-1-17 4-15 1-4-1h-44l-16 3-5 3h-10l-7 2-3-2 3-11 3-2 8-1 2-1 10-1 9-2z" fill="#E69878"/>
<path transform="translate(183,56)" d="m0 0h10l-3 4h-2v2h-6l2 1-1 5-7 6-3 6 2 4 1 14-31 8-7 3-12 3-2-2-3-13v-5l11-10 18-12 17-9z" fill="#FBFCFB"/>
<path transform="translate(1126,348)" d="m0 0 3 1v38l-3 1h-41l-23 1-7 6-2 5-1 35-1 71-7-4-1-6v-97l2-5 9-10 5-4h62v-28h2l1-3z" fill="#F6F7F5"/>
<path transform="translate(1487,143)" d="m0 0 6 1 9 8 13 10 8 8 10 14 8 17 2 7 1 9v12l-2 12-5 16-8 14-8 9-8 2-9-1 2-4 9-10 7-11 6-12 3-11v-14l-5-16-3-6-1-8-6-12-11-14-10-9-5-4-3-5z" fill="#FABA51"/>
<path transform="translate(883,248)" d="m0 0h169l1 4-2 3-19 1-136 1-5 1-1 35-1 10-1 1h-5z" fill="#FCFDFC"/>
<path transform="translate(995,373)" d="m0 0h1v16l-1 28-8-1-6-1-10 3-11 4h-5l-6 9-1 27h-1v-66l5-2 7-4 19-4h10v2l6 2z" fill="#90AEBB"/>
<path transform="translate(1172,222)" d="m0 0 2 3 1 4v58l-7-1-9-3-23-2h-15l6-8 24-24 7-8 8-10z" fill="#F9BB52"/>
<path transform="translate(448,345)" d="m0 0h17l34 1 1 5-1 2-43 1-5 97-3 57-1 3h-7v-27l2-22 1-4 1-57 3-47z" fill="#F3F7F5"/>
<path transform="translate(1564,398)" d="m0 0h1v14l-2 6-13-1-17 4-6 1-4 2-7-1-1-1h-8v3l8 1v1h-49v-3l-1-5 6-7 13-4 13-2v-1h34l10-2 7-2 11 4 5 1z" fill="#8CA5BA"/>
<path transform="translate(1233,383)" d="m0 0h9l6 3 5 4 2 6v27l-2 3-4-4v-2l-5-2-7-1-10 2-2 2-9 1-5 4h-2v-38l6-1 9-2z" fill="#90AEBB"/>
<path transform="translate(941,303)" d="m0 0h5v175l-1 33-1 2-6 1v-130l1-79z" fill="#F5F6F5"/>
<path transform="translate(529,187)" d="m0 0 3 1 1 4-2 3-11 1 3 7 2 4 6-6 4-2 2-6 3 2h14l1 1 1 15 4 5 11 3 1 14 3 13-1 3-8 5-5 2h-8l-11-5-7-6 1-2 7 2 2 2 6 1 1 3h-4l9 4v-5l3-4v-17l-6-2-4-2-2 5-4 1-5-6 1-5-2-4h-5l2 4-1 3-2-2-5-1 2 4v4l-4-1-3-5 1-7-3-4-3-9v-2h-2l1-5 10-5z" fill="#151312"/>
<path transform="translate(1557,306)" d="m0 0 3 1v8h-85l-10 2-9 8-5 9-1 30v48l1 10-5-2-3-2-1-90 9-11 8-10z" fill="#FBFBF7"/>
<path transform="translate(635,370)" d="m0 0h13l7 3-2 12v10l-6 21-2 1 1-14-6-5h-9l-20 3-1 2h-4l-2 3-3-16 1-5-1-10 5-3z" fill="#E9B37D"/>
<path transform="translate(368,258)" d="m0 0h51v8h-43v27l-2 73-1 29-2 1h-9l-3-5v-2h7v-20l1-69z" fill="#F2F7F5"/>
<path transform="translate(391,394)" d="m0 0h15l8 9 2 6v13l-1 12h-1l-1-11-1-5h-2l-3-5-2-1v-2h-10l-3 2-17 3-19 6-13 2-6 1-1 4-3-12v-6l3-2 4-3 17-2 15-5 8-1 5-2z" fill="#EF947D"/>
<path transform="translate(665,300)" d="m0 0h46l9 17 1 2-4-1-2-2-12-4h-10l-9 2-8 3-6 5-5 7h-2l-2 4-10 12-5 5-5 3h-6l-2-4 14-21 14-22z" fill="#EDD997"/>
<path transform="translate(777,352)" d="m0 0h5l6 2 4 4 1 23 3-1h61l-1 8-4 1h-53l-6-2-1-4-6-5-2-3h-28l-3-2v-15l2 1 7-4 12-2z" fill="#E6C180"/>
<path transform="translate(753,373)" d="m0 0 9 1h23l1 4 4 2 4 3v4l5 1h57v13l-2 2-3-5-6-4h-29l-27 4h-35l-1-3z" fill="#E7A87D"/>
<path transform="translate(260,351)" d="m0 0 4 2 21-1v2l4-1 9 9v8h2l-1-9h2l-1 39-2 3-4-14-3-5-5-2-13-1-1 3-6 3h-2l-1 4-3 5h-2v7h-1v-13l1-3 1-13 4-2 1-9h-4z" fill="#E9B37D"/>
<path transform="translate(221,81)" d="m0 0h7v14h-9l-6 3-3 4-1 3v8l3 11 4 5v2l6 1 5-1 4 10 4 15-1 4-11 7h-4l-12-34-6-25-3-9v-6l6-5 11-5z" fill="#55AEBA"/>
<path transform="translate(680,380)" d="m0 0 2 2 7-1 11-1 11 3v2l6 2 2 5 1 25-1 6h-1v-7l-5-2-4-4h-8l-12 3-6 4h-5v-13l1-7z" fill="#E69878"/>
<path transform="translate(230,55)" d="m0 0 3 2 14 40 9 28v3l-5 1h-19l2-7v-14l-6-12v-15l-6 1v-2l5-2 1-4-12 4-9 4-4-1 8-5 5-3 3-1 2-7 7-6z" fill="#8AD1AE"/>
<path transform="translate(1521,426)" d="m0 0h2v40h-72v47h-7v-56h71l2-30z" fill="#FCFDFC"/>
<path transform="translate(176,195)" d="m0 0h7l16 7 9 8 3 5v4l-9 3h-23l-11-4h-8l6 1v3h-12l-4-1-2-2 1-4 12-11 10-7z" fill="#3C8994"/>
<path transform="translate(674,374)" d="m0 0 5 1v29l-6 72-2 35h-8l1-30 3-37 1-26 4-39z" fill="#F3F7F6"/>
<path transform="translate(1054,307)" d="m0 0h101l5 5-1 3h-74l-23 1-1 37-3 2-4-1z" fill="#F1F5F3"/>
<path transform="translate(910,360)" d="m0 0h1v100l-23 2-1 84h-1l-1-130v-44h1l1 41 1 19 6-1 4-3 7-1 2-3 2-12z" fill="#3B7F88"/>
<path transform="translate(1381,307)" d="m0 0h51v5l-2 3h-42l-4 4-13 29-12 27-6 11-5 1-6-3 2-5 6-3 5-13 12-27 10-23z" fill="#F2F5F4"/>
<path transform="translate(1092,422)" d="m0 0h30l-1 35-26 1-2 1-1-2z" fill="#020102"/>
<path transform="translate(1146,105)" d="m0 0h6v12l-4 17-4 6-9 8-16 10-14 7-8 12-3 7-4 1-1-7 4-9 7-6h4l1-3 8-6 6-5 7-9 3-4h2l2-11-1-6-1-5 4-4 1 2 6-1 2-4z" fill="#CF8140"/>
<path transform="translate(306,346)" d="m0 0 4 2 4 6 8 24 11 35 9 32 8 24 4 15 5 15 1 13-3 1-4-11-9-29-10-31-9-30-6-19-5-18-7-26z" fill="#F6F9F6"/>
<path transform="translate(175,302)" d="m0 0h4v77l-1 8-1 1h-42l1-6 4-3h30v-15l1-15 1-38 1-7z" fill="#F2F6F5"/>
<path transform="translate(855,410)" d="m0 0h1v15l-3 2h-60l-1 3-5-1-13-4-2-1v-2l-5-2-4-4-1-4h26l8 1 16 1 1 3 6-2 2 5 6 1-1-5 4 2 3 2 1-2 2 4 3-1 2 1v2h2v-2l8-1 2 1 1-2z" fill="#E58673"/>
<path transform="translate(499,351)" d="m0 0h1v26l-1 8h-2l-3-8-4-6-2-2h-12l-7 2-6 3h-2v2l-6 1v11h-1v-16l1-18 1-1h43z" fill="#E9C085"/>
<path transform="translate(1255,312)" d="m0 0h1v79l-1 5-2-1v-5l-4-2-4-3-3-1h-9l-18 4-4 1-2-1v71h-1v-81l1-6 9-1 15-3h13l6 3 2 5z" fill="#8CBFB1"/>
<path transform="translate(631,397)" d="m0 0h9l7 6-1 16-6 20-2 1 2-9 1-11-4-3-9-1-10 2h-2l-1 12-5-1-5-20v-7l5 1 1-3z" fill="#E69878"/>
<path transform="translate(1365,365)" d="m0 0 2 1 2 5h3l4-3h10l9 3 3 3 1 10-5 9-12-3h-16l-3-1h-12l-2-2 4-2 6-12 4-4z" fill="#8BC1B0"/>
<path transform="translate(455,259)" d="m0 0h53l-2 7h-17l-26 1-2 27-2 29h-8v-21l3-39z" fill="#F7F9F7"/>
<path transform="translate(1322,363)" d="m0 0h7l10 5 1-5h1v11l-1 9-1 1-29 1-5-1-8-2-2-2v-15l1 2h2l2 2 8-3z" fill="#8CC1B1"/>
<path transform="translate(360,124)" d="m0 0 5 1 4 5 3 9v14l-5 5-3 1h-9l-4-4-3-8v-9l3-5-4 2-2 3-1 15-3-4-3-5v-6l4-6 5-4z" fill="#080606"/>
<path transform="translate(995,364)" d="m0 0h1l-1 23-7-3v-2l-16 2-13 3-9 5h-3v-17l8-2 9-5 9-1h18l3 2z" fill="#8CC1B1"/>
<path transform="translate(560,395)" d="m0 0 8 1 8 3v4h2l-1 34-1 9h-1l-1-32h-6l-3 3h-9v-3l-14-2-9-1v-11l13-3 11-1z" fill="#E69878"/>
<path transform="translate(1154,368)" d="m0 0h9l5 4h3l1-2v15l-2 7-9-3-9 1h-11l-10-2-1-1v-13l1 3h2v-2l14-5 5-1z" fill="#8CC1B1"/>
<path transform="translate(390,349)" d="m0 0h6l5 1 6 2 6 10 1 1 1 9 1 31-2-3-2-19-3-10-8-4-5-1v2h-8l-9 2-2 2-2-1-1 24h-1v-29l2-14 1 2 7-4h4z" fill="#E5BF7E"/>
<path transform="translate(140,154)" d="m0 0 3 1 7 14 4 1 29-7h6l2 7 3 2 1 3 5 1-4 2 2 2-14 2-6 1-22 1-5-5-6-10-5-12z" fill="#3C8894"/>
<path transform="translate(633,381)" d="m0 0h10l4 4 3 5v8l-1 2h2l-4 16-2 1 1-14-6-5h-9l-20 3-1 2h-4l-2 3v-10l5-9 5-2 13-2z" fill="#E7A87E"/>
<path transform="translate(1119,121)" d="m0 0 4 1-1 4h-3v2l6 1-1 5-7 8-9 7-5 5-13 10-15 15-5 4h-15l-3-2 8-6 5-3 7-4 14-10 9-7 7-8 7-7 7-5h2v-5l-3-1z" fill="#E59143"/>
<path transform="translate(1492,355)" d="m0 0h1v28l-1 5-24-1h-9l-9 1v-13l1-5 6-2 16-1 9 3 5 7 4 3z" fill="#89BDAD"/>
<path transform="translate(482,396)" d="m0 0 8 1v2l5 2 3 8v20l-2 1-1-12-3-3h-3l-1 3-13-1v-3l-10-1h-10l-2-2v-7l2-4v2l13-4z" fill="#E69878"/>
<path transform="translate(226,51)" d="m0 0 4 1-2 4-10 8-4 9v3l-6 3-3 3-4 3-7-2 2-4 8-4 5-7-1-4-5 3-4 6-4 1-1 2-5 5-4 8v5l-2 1-3-5-1-4v-9l15-14 5-2 2-6z" fill="#3C8994"/>
<path transform="translate(980,401)" d="m0 0 10 1 5 2v13l-8-1-6-1-10 3-11 4h-5l-6 9-1 27h-1v-38l2-5 6-7 9-3z" fill="#8CA5BA"/>
<path transform="translate(1099,87)" d="m0 0 3 3 7 2v7l-6 13-3 1-11-2-2-5h-2l-1 3v10h8l2-4h6l-1 4-5 4-9 3h-2l-2 5-2 3h-3v-20l5-10 15-15z" fill="#110B0B"/>
<path transform="translate(118,352)" d="m0 0 9 1 5 3 3 4v2h2l1 13-2 2-1 3-2-5-5-2-2-2-7-1v-1l-8-1-4 3h-2l-1 3h-2l-2 4-7 9h-3l3-10 4-12 4-2 5-5 4-3h3l1-2z" fill="#E6BF7E"/>
<path transform="translate(1524,195)" d="m0 0h2l2 2 6 1 4 5 3 5-1 26-2 12-5 12-4 7-6 9-2 4-7 1-1-3 1-4 7-8 7-12 4-13v-9l-2-15-4-12-2-5z" fill="#E79443"/>
<path transform="translate(1175,18)" d="m0 0 1 2-2 3h-2l-2 4-10 14-8 9-3 1-6 9h-2l-2 4-6 9-7 1-9-4-1-3 11-9 8-8 9-7 5-5 10-7 12-10z" fill="#5C4A3B"/>
<path transform="translate(887,360)" d="m0 0h23v16l-2 12-6 3-10 2-4-2z" fill="#8ED3AF"/>
<path transform="translate(598,112)" d="m0 0 5 2 11 8 9 9 6 12 2 6v7l-2 4-8-4-7-8-3-5-8-6-2-4 4-2-2-6-4-4-3-2 1-5z" fill="#526C50"/>
<path transform="translate(277,398)" d="m0 0h11l3 2v2h2l5 8 1-10h1v24l-2 4-3-7-2-6h-14l-14 4-7-1-1-1v-9l1-2 5-2 6-4 7-1z" fill="#E69878"/>
<path transform="translate(391,394)" d="m0 0h15l4 5-2 4-3 3-5 2h-23l-3-2h-8l-12 6-12 2-6-4v-3l4-2 17-2 15-5 8-1 5-2z" fill="#E69878"/>
<path transform="translate(1235,403)" d="m0 0h9l6 3 4 6h1v11l-2 3-4-4v-2l-5-2-7-1-10 2-2 2-9 1-5 4h-2v-16l5-2 9-2 10-2z" fill="#8CA5BA"/>
<path transform="translate(583,185)" d="m0 0 7 1 9 4 12 4 3 3-1 7-9 14-5-2-3-4 3-12-7 1-2 3h-9l-5-8 1-6z" fill="#893023"/>
<path transform="translate(665,300)" d="m0 0h46l1 5-7 1-16 2-19 1-5 4-7 12-9 10-9 11-6 4 2-5 10-16 7-10 9-15z" fill="#F1F5F4"/>
<path transform="translate(111,367)" d="m0 0 9 1v1l7 2 7 4 1 2 1-2 2 6-3 7-2-2h-5l-5-1-17 1-8 4h-2v2h-3v2l-4 2-1-5 3-5 4-2 7-10 5-4z" fill="#E8B37D"/>
<path transform="translate(1123,421)" d="m0 0h7v43l-1 1h-37l1-5 2-3h26v-30z" fill="#F6F9F8"/>
<path transform="translate(167,425)" d="m0 0h4v72l-1 16h-7l1-85h2z" fill="#F8FBF9"/>
<path transform="translate(360,121)" d="m0 0h5l6 5 3 5 1 3 4 1 2 13v8l-4 6-7 3-18-1-3-2-3-7-2-6v-11l4-5 4-1-3 6v9l4 9 2 2h9l6-3 1-2v-14l-3-9-4-5-9 1-10 4h-4l3-3 4-1v-2z" fill="#E9BE86"/>
<path transform="translate(396,366)" d="m0 0 8 1 6 4 4 16v12l-2-3-4-10-3-4-5-1h-8l-10 2-2 4-5 4h-1v-21h4l6-2 9-1 3 1z" fill="#E9B37D"/>
<path transform="translate(977,44)" d="m0 0h2l1 8 4 2 12 2 1 2-3 5-11 4-2 5-2 7-8-1-1-11-3-2-11-1-1-1 1-7 13-1 1-1 2-9z" fill="#F8B850"/>
<path transform="translate(561,380)" d="m0 0h6l8 4 1 2v13l-12-3-18 2-12 2 1-13 5-1 4-3z" fill="#E7A87E"/>
<path transform="translate(188,353)" d="m0 0 4 1 17 1 5 6 4 4 2 19v17h-1l-2-22-3-5-6-4h-19l-9 3h-1v-12l1-3 5-3z" fill="#E6BF7E"/>
<path transform="translate(481,381)" d="m0 0h6l9 9 1 16-2-3v-2l-5-2v-2h-8l-19 3-4 2h-4l-2 2v-9l4-4h2l2-4 2-2 12-2z" fill="#E7A87E"/>
<path transform="translate(554,158)" d="m0 0 9 3 12 7 4 8-2 5-7 5-5 2h-7l-6-3-1-9 2-15z" fill="#872E22"/>
<path transform="translate(260,351)" d="m0 0 4 2 21-1v2l4-1 9 9-1 5v9l-4-2-11-5-4-1h-8l-5 1-1-1v-5h-4z" fill="#E6BF7E"/>
<path transform="translate(1085,140)" d="m0 0 5 2-3 6-1 5 1 2h-2l1 4-14 10-7 4-5 3-6 5-2-2-2-11h4l2 1v2l6-1 1-5-1-5 12-14 4-4 4-1z" fill="#FEB352"/>
<path transform="translate(593,375)" d="m0 0 4 2 5 13 5 24 9 35 1 9-1 1h-5l-3-7-2-12-4-16-8-36-2-8z" fill="#F6F8F6"/>
<path transform="translate(353,209)" d="m0 0 5 2 12 5 7 2 19 2-1 6-2 4-5 2-6 1h-19l-3-2-4-16v-3h-2z" fill="#D38440"/>
<path transform="translate(622,161)" d="m0 0 7 6 3 1v7l-5 10-4 5-8-5-5-1-5 1-8-5-2-4-1-4 1-1h17l5-3z" fill="#546D52"/>
<path transform="translate(680,380)" d="m0 0 2 2 7-1 11-1 11 3v2l6 2 2 5v11l-6-5-4-2h-19l-5 2-5-1z" fill="#E6A77D"/>
<path transform="translate(1352,427)" d="m0 0 5 1 4 9 17 54 5 17v5l-5-1-6-16-13-42-6-17z" fill="#FAFAF7"/>
<path transform="translate(230,55)" d="m0 0 3 2 14 40 9 28v3l-4-1-5-16-4-11-5-10-5-13-4-2-1 3v-4l-12 4-9 4-4-1 8-5 5-3 3-1 2-7 7-6z" fill="#52ABB7"/>
<path transform="translate(438,215)" d="m0 0 5 1 19 11 7 5v2h-51l12-9z" fill="#54B0BE"/>
<path transform="translate(1246,74)" d="m0 0 4 4 9 26 6 22 5 18 2 9v9l-3-4-5-17-6-15-11-21-8-15 1-3 6 11v2h6l-1-5-6-17z" fill="#F4B553"/>
<path transform="translate(392,380)" d="m0 0h9l5 2 4 6 4 11 2 4v6l-2-1-2-6-6-7h-15l-16 4-4-2v-2h3l1-5 6-5 3-3 7-1z" fill="#E6A87E"/>
<path transform="translate(563,217)" d="m0 0 8 2 1 14 3 13-1 3-8 5-5 2h-8l-11-5-7-6 1-2 7 2 2 2 6 1 1 3h-4l9 4v-5l3-4v-17l-1-2 3-3z" fill="#8192B0"/>
<path transform="translate(753,373)" d="m0 0 9 1h23l1 4 4 2 4 3v4l5 1v1h-11l-5-2h-20l-9 2-1-2z" fill="#E9B37D"/>
<path transform="translate(796,458)" d="m0 0h60v7l-19 1h-43l1-6z" fill="#FCFDFC"/>
<path transform="translate(328,206)" d="m0 0h6l5 4 3 13 5 8v1h-15l-7-8-11-3 2-4 7-8z" fill="#3C8995"/>
<path transform="translate(1085,387)" d="m0 0h41l2 2-12 1-10 2-25 2-13 4-7 4h-2v2l-7 5v-9l3-6 7-6z" fill="#8CC1B0"/>
<path transform="translate(172,80)" d="m0 0 3 4 1 14-31 8-7 3-12 3-2-2v-4l24-9 15-8 8-6z" fill="#7F9DB4"/>
<path transform="translate(886,360)" d="m0 0h1l1 50 1 3 18-4-1 3 1-1 2-8h1v9l-2 12-3 4-9 2-4 3-5-1-1-19-1-52z" fill="#7E97B6"/>
<path transform="translate(189,369)" d="m0 0h19l8 6 2 4 1 10v11h-1l-1-11h-2l-5-8-3-1h-10l-9 3-9 1v4l-2-1 2-14 7-3z" fill="#E9B37D"/>
<path transform="translate(692,371)" d="m0 0h13l10 4 5 3 1 13v14l-1 5h-1l-1-18-1-5-6-2v-2l-11-2-11 1-7 1-1-1-1 15h-1v-23z" fill="#E9B47E"/>
<path transform="translate(324,360)" d="m0 0h14l3 2v2h2l3 3 6 4 4 10 2 3-1 3-5-7-11-5h-7l-8 3v8l-2 2-5-16v-3h2l1-7z" fill="#E6BF7E"/>
<path transform="translate(581,214)" d="m0 0 4 2 10 8 3 2-1 5-7 23-3 2-3-4-4-17v-19z" fill="#5B4B3C"/>
<path transform="translate(1495,381)" d="m0 0h59l5 5v2h-67l-1-3z" fill="#FCFDFB"/>
<path transform="translate(497,167)" d="m0 0h13l4 3v8l-6 2-4 1h-24l-7-4 2-4 13-4z" fill="#526A4F"/>
<path transform="translate(1541,207)" d="m0 0 2 1 1 9v12l-2 12-5 16-8 14-8 9-8 2-9-1 2-4 9-10 7-11 6-12 4-14h1v9l-5 15-7 11-7 8v5l7-1 5-9 8-14 4-12 1-8 1-23z" fill="#FAB054"/>
<path transform="translate(341,180)" d="m0 0 5 1 7 8 4 5 6 3-1-2 5 2 5 5h-3l5 5v-3h2l4 5 3 3-8-1-19-7-10-6-10-9-2-6 4-1z" fill="#E79348"/>
<path transform="translate(1507,145)" d="m0 0h10l15 4 6 4 8 6 3 3 3 2v2l4 1v-2l4 1 4 3v2l-11-3-9-3-14-1-3-3-15-9-8-5z" fill="#D0833F"/>
<path transform="translate(239,184)" d="m0 0 7 1 7 4 4 7-1 6-8 5-5-1-12-10-7-4 3-2z" fill="#52ABB8"/>
<path transform="translate(796,380)" d="m0 0h61l-1 6-1 1h-60z" fill="#FCFDFB"/>
<path transform="translate(265,197)" d="m0 0 4 1 4 3 3 12v7l-2 1h-9l-12-6-6-4 1-3 8-4z" fill="#872E22"/>
<path transform="translate(334,374)" d="m0 0h8l11 6 5 6 2 3 1 6-6-1-1-3-8-2v-2l-12-1-3 3 1 13h-2l-1 2-4-13v-14z" fill="#E8B47E"/>
<path transform="translate(307,152)" d="m0 0 6 2 7 7 5 9 5 7v2l-7-2-14-8-1-2h10l-4-7-6 1-3 2v6l4 5 10 4 9 2v2l-2 1h-12l-7-3-5-5-3-8v-7l3-6z" fill="#ECCB90"/>
<path transform="translate(258,171)" d="m0 0h8l8 5 4 5 2 3v3l-4 2v4l3-1 2-3 5 2 2 5h-5-2l-3 2-6-5-12-9-10-8-1-3z" fill="#87CCAE"/>
<path transform="translate(181,254)" d="m0 0h28l11 1v11l-2-1-1-4-6-3-6-1-9 1h-29l-22 3-9 4-4 6h-2l-2 4 2-9 4-10 1-1z" fill="#EEDA98"/>
<path transform="translate(183,56)" d="m0 0h10l-3 4h-2v2h-6l2 2-7-1-5 2-1 6-7 3-21 7-9 4-8 5-2-1 11-9 15-10 17-9z" fill="#8AD0AE"/>
<path transform="translate(532,148)" d="m0 0 4 1 10 3 2 2-2 9-5 2h-5l1 2 5 3 1 3-1 2-9-2-2-1v-2l-9-3 4-9z" fill="#872E22"/>
<path transform="translate(208,63)" d="m0 0 2 2-1 4-6 8-8 4-1 2 6 1v2l-7 6 1 6 5 14-1 6-3-2-6-12-5-7v-8l5-9h2l2-5 6-2 2-4 2-3h2l1-2z" fill="#56B0BE"/>
<path transform="translate(339,123)" d="m0 0 1 3 8-1-4 3-5 3-4 10h-2l3 4v7l2 4v5l-4 1-3-4-3-1-2-4h-2v-15l5-10 5-4z" fill="#E79347"/>
<path transform="translate(623,305)" d="m0 0h3v10l-25 12-11 4-4-1 1-5 9-7z" fill="#F9FAF7"/>
<path transform="translate(510,138)" d="m0 0 13 3 5 3-1 5-8 11-10-3-10 1 4-10z" fill="#872E22"/>
<path transform="translate(1488,149)" d="m0 0 4 2 11 9 8 9 8 11 5 13-2 2-11-15-20-20-4-3v-2l-4-2 1-2z" fill="#D98746"/>
<path transform="translate(176,195)" d="m0 0h7l2 4-7 8-5 5-4 3-5 1h-14l2-4 14-12z" fill="#F0F6F4"/>
<path transform="translate(529,187)" d="m0 0 3 1 1 4-2 3-11 1 3 7 3 4v2l5-2 3-5h2l1 4 3 3-5 7h-2l2 4-1 3-2-2-5-1 2 4v4l-4-1-3-5 1-7-3-4-3-9v-2h-2l1-5 10-5z" fill="#E6EAE1"/>
<path transform="translate(1130,95)" d="m0 0h4l2 3 3 1 4 5-1 7-6 1-1-2h-7l-5 3-1 2 5 1v4l-7 2-1-4v-2h-2v-6l3-7 4-7z" fill="#FDB352"/>
<path transform="translate(174,100)" d="m0 0h3l4 9v2h-5l-2-5-1 2 1 4h-5l-1-4-5 1 1 4-10 4-7 2-9 4h-5l1-2 9-4 5-1v-3l-10 4-4 2h-5v-4l13-4h3v-2l20-5 1-1h7z" fill="#76818F"/>
<path transform="translate(1454,178)" d="m0 0h9l9 3 5 4 2 5v5l-16-2-9-3v-2l-5-1 2-7z" fill="#D2833C"/>
<path transform="translate(193,120)" d="m0 0h3v6l-8 11-12 6-7 1-5-4 2-4 16-10z" fill="#EDD493"/>
<path transform="translate(1253,63)" d="m0 0 2 1-4 6v3l-5 2 1 5 6 17-1 4-6-1-7-12-2-3-1-7 1-5 3-5z" fill="#E79343"/>
<path transform="translate(848,304)" d="m0 0h6l2 3v9l-2 1-1-4-6-1-9-1h-35l-49-1v6h-1v-7l84-3 9-1z" fill="#EEDA98"/>
<path transform="translate(522,116)" d="m0 0 2 1 3 5 2 1v2l3 1 4 1 6 9-1 3-10 1-16-8 1-7 4-8z" fill="#5B4B3B"/>
<path transform="translate(279,414)" d="m0 0h12l3 3 2 4 1 7-7 3-8-1-5-2-2-3-4-2-1-5 4-3z" fill="#E58573"/>
<path transform="translate(701,409)" d="m0 0h8l5 5 1 5-1 3h-2l-2 2h-13l-1-2-9-2v-6l4-3z" fill="#E58673"/>
<path transform="translate(185,198)" d="m0 0 3 1 2 11-3 5-7 3-9 1-3-1h-8l6 1v3h-12l-4-1-2-2 1-4h15l7-2 12-12z" fill="#5AB4BF"/>
<path transform="translate(226,74)" d="m0 0h2l-1 5-12 5-14 7-2 2 1 9 5 18v2l-4-1-9-25 1-5 8-7 9-5z" fill="#030608"/>
<path transform="translate(1456,233)" d="m0 0h6l4 2 1 5-3 6-7 5-6 1-3-1-3-7 2-6 5-4z" fill="#8496B7"/>
<path transform="translate(1421,199)" d="m0 0h6l6 2 10 1v1h-21l-9 3-12 6-5 5-4 10-5 4-2-3 2-6h3l1-6 4-8 7-6z" fill="#5C4A3B"/>
<path transform="translate(317,250)" d="m0 0h1l4 17 13 42v6l-2-3-6-19-6-20-5-12-8-2-24-1h-21v17h-1v-18l1-1 48-2 6-1z" fill="#EDD897"/>
<path transform="translate(110,355)" d="m0 0 5 1-2 9-4 5-4 1-1 3h-2l-2 4-7 9h-3l3-10 4-12 4-2 5-5z" fill="#EABF86"/>
<path transform="translate(555,193)" d="m0 0 1 2h7l6 4-1 3-5 2-2 2v5l5-1 6-5 4 1-1 6-3 4-1 3-7-1-5-2-4-5z" fill="#F0F2E9"/>
<path transform="translate(140,154)" d="m0 0 3 1 7 14 4 1 29-7h6l1 3-21 6-12 3-5 5-6-9-5-11z" fill="#7DC1AF"/>
<path transform="translate(417,105)" d="m0 0h11l3 1 1 2 1 21-8-12-2-1h-9l-3 1v-5h-2l-1-6z" fill="#E9964B"/>
<path transform="translate(545,199)" d="m0 0h6l1 1 1 14 4 5 3 3-8 2-9-1-1-4 5-6 1-3-5 2-2-1-1-3v-8z" fill="#E1E4DF"/>
<path transform="translate(218,99)" d="m0 0h5l5 5 3 6v7l-4 7-4-1-7-14-1-1v-6z" fill="#56ADB8"/>
<path transform="translate(611,427)" d="m0 0 1 2 4 2 4 15 4 4 3 1h5l2-4h1v8l-2 4h-17l-1-10-4-16z" fill="#F08378"/>
<path transform="translate(909,390)" d="m0 0h1v13l-2 8-3 3-1-2h2l-1-2-16 4-2-4v-12l2 4 2 1 9-3 7-2z" fill="#8CADBB"/>
<path transform="translate(1146,105)" d="m0 0h6v9h-2l-2 6-5 5-7-2-1-4-4-1 1-6 4-2v2l6-1 2-4z" fill="#E79344"/>
<path transform="translate(456,224)" d="m0 0 9 5 4 3v2h-51l4-3 7-2 9 1 15-3z" fill="#3C8A96"/>
<path transform="translate(86,402)" d="m0 0h9l3 2v2l6 2 5 2-3 2-5 3h-10l-7 2-3-2 3-11z" fill="#EF957D"/>
<path transform="translate(499,351)" d="m0 0h1v26l-1 8h-1l-1-19-1-7-6-2-9-1-19 2h-5l-1 6h-1v-10l1-1h43z" fill="#EDD495"/>
<path transform="translate(1355,201)" d="m0 0 5 1 4 9-1 7-4 2h-10l-2-5 5-12z" fill="#D5863C"/>
<path transform="translate(422,206)" d="m0 0 5 2v2l6 1-2 5-11 10-12 8h-5l2-4 12-10 3-2v-7z" fill="#3C8995"/>
<path transform="translate(595,119)" d="m0 0 7 3 4 7-1 3-3 2 4 5 5 3 3 3-1 3-6-4-15-5-1-3 5-1 1-3h2l-1-5-5 1-4 1 1-5z" fill="#5B4A3B"/>
<path transform="translate(1248,55)" d="m0 0 3 1 2 8-13 5-3 6v6l-2-1-3-8v-10l11-5z" fill="#FCB254"/>
<path transform="translate(360,121)" d="m0 0h5l6 5 3 5 1 3h2v10l-2 9-5 5-4 1 5-6v-14l-3-9-4-5-9 1-10 4h-4l3-3 4-1v-2z" fill="#EBD79C"/>
<path transform="translate(1256,115)" d="m0 0 6 1 6 20 4 17v9l-3-4-5-17-6-15-3-6z" fill="#F6AA51"/>
<path transform="translate(409,180)" d="m0 0h4l-1 4-5 4-10 2h12l-1 5-6 5-4-2-3-3v-4l-7-1-1-3 19-5z" fill="#0E0A09"/>
<path transform="translate(205,141)" d="m0 0 2 1 7 21v5l-1 1h-5l-2-5-4-7-2-7 1-6z" fill="#8DD2AD"/>
<path transform="translate(336,101)" d="m0 0 12 5 18 3-4 2-11 1-10 5-7 5-1-2 2-7z" fill="#E69573"/>
<path transform="translate(503,306)" d="m0 0h1v13l-1 6h-25l-26-1v-1h7v-11l1 4 6 1 9 4 24 1 3-9z" fill="#ECD595"/>
<path transform="translate(307,152)" d="m0 0 6 2 7 7 5 9 5 7v2l-7-2-14-8-1-2h10l-4-7-6 1-3 1-1-4z" fill="#E9C792"/>
<path transform="translate(1422,224)" d="m0 0 2 1-6 8-3 10v7l4 13 3 5 2 1v2l-6-2-6-7-2-5-1-8 2-10 5-10z" fill="#5C4A3B"/>
<path transform="translate(1442,161)" d="m0 0h16l3 3 4 5h7l10 5 1-2 17 13 8 8-4 1-2-4-8-7-8-5-18-5-26-11z" fill="#FCB151"/>
<path transform="translate(454,400)" d="m0 0 1 2 10 1 8 4 6 2-4 4h-20l-2-2v-7z" fill="#EF947D"/>
<path transform="translate(535,399)" d="m0 0h2v2l6 1v2l7 1 10 4-5 4-17-1-5-1v-11z" fill="#EF967D"/>
<path transform="translate(207,191)" d="m0 0h10l9 4 9 7 2 3v3h-5l-14-11-3-1-20-1-1-2z" fill="#DBE9E5"/>
<path transform="translate(310,159)" d="m0 0 5 1 4 7-1 1h-9l16 9 1 2h-7l-10-4-5-6v-6z" fill="#1F0D0B"/>
<path transform="translate(1443,103)" d="m0 0 12 2 13 4 2 1 1 4-12 1-16-4-3-3 7-1z" fill="#E08F44"/>
<path transform="translate(271,150)" d="m0 0 4 1 5 4 3 5v3h-8l-15-3v-3z" fill="#5C4A3B"/>
<path transform="translate(626,309)" d="m0 0h1l3 17 2 10v11l-2-4-3-17-16-2-6 1 4-3 15-7h2z" fill="#E9D596"/>
<path transform="translate(1502,142)" d="m0 0h15l16 6 12 7 6 3 7 6-2 1v2l-4-1-3-3-3-2v-2l-4-2-8-6-13-4-14-2-1 2-4-1v-2l-3-1z" fill="#E59142"/>
<path transform="translate(575,400)" d="m0 0 1 3h2l-1 34-1 9h-1l-1-32-6-1-3-3-4-2 7-2z" fill="#EE917B"/>
<path transform="translate(419,259)" d="m0 0h1l-1 47-1 18h-1l-1-35-1-19h-2l-1-3-28-1v-1h30l5 1z" fill="#E9D295"/>
<path transform="translate(227,62)" d="m0 0 3 1 1 2v7l-5 3-10 3-9 4-4-1 8-5 5-3 3-1 2-7 2-2z" fill="#6D92A6"/>
<path transform="translate(353,209)" d="m0 0 5 2 12 5 9 3-4 1-8-1-2 5-1 7-2 1-2-1-4-16v-3h-2z" fill="#E79248"/>
<path transform="translate(1496,149)" d="m0 0 4 1 16 13 7 7 10 14 2 6-8-8-6-5-6-8-5-8-11-9z" fill="#E5CA80"/>
<path transform="translate(232,194)" d="m0 0h12l3 1 4 7 2 2-5 3-5-1-12-10z" fill="#3C8893"/>
<path transform="translate(529,187)" d="m0 0 3 1 1 4-2 3-11 1 3 7 2 9-1 2-3-1-4-11v-2h-2l1-5 10-5z" fill="#130F0E"/>
<path transform="translate(1379,277)" d="m0 0 2 1v2l33 1h38l-2 3h-32l-28-1-11-1z" fill="#073146"/>
<path transform="translate(420,120)" d="m0 0 4 1 4 5 1 2v18l-6 5-2-1 2-3v-17l-3-7z" fill="#DECF97"/>
<path transform="translate(556,149)" d="m0 0 9 4 11 3v-4h6l1 1v9l-10-1-14-7-3-3z" fill="#778AA0"/>
<path transform="translate(258,406)" d="m0 0 5 1 9 6 2 3-3 2-10 1-4-2v-9z" fill="#F0947D"/>
<path transform="translate(594,233)" d="m0 0 1 4-5 17-3 2-3-4-1-8h2l1-6 5-3h3z" fill="#526B50"/>
<path transform="translate(566,109)" d="m0 0h9l4 3v7h-2l-2 4-3-1-3-5-6-1v-5z" fill="#5B4A3B"/>
<path transform="translate(1425,94)" d="m0 0 11 2 15 6 9 2 9 3 9 6-1 2h-6l-1-5-12-3-15-4-18-8z" fill="#FEB451"/>
<path transform="translate(595,171)" d="m0 0 15 1-3 9 2 1-2 3-6-2-4-4-3-5z" fill="#5B4A3B"/>
<path transform="translate(188,127)" d="m0 0 1 2h3l-1 4-5 5-10 5-7 1v-2l8-5 4-6z" fill="#F7F2EB"/>
<path transform="translate(1532,230)" d="m0 0h1v9l-5 15-7 11-7 8-4 3-2-1 10-12 9-16z" fill="#EDC67A"/>
<path transform="translate(539,208)" d="m0 0h2v3l7-1-1 5-4 4v3l7 2-1 5-2 2-4-1-4-5 1-5-2-4-3-2 4-5z" fill="#130F0C"/>
<path transform="translate(210,199)" d="m0 0 6 1 10 6 4 2-1 2h-14v-2l-4-2-5-5z" fill="#839EB3"/>
<path transform="translate(606,405)" d="m0 0 4 3v2h2l4 11-1 9-5-1-5-20z" fill="#EF9A7F"/>
<path transform="translate(134,141)" d="m0 0h18l-1 5-11 5-4-2-3-3z" fill="#F7F3E6"/>
<path transform="translate(174,100)" d="m0 0h3l4 9v2h-5l-2-5-1 2 1 4h-5l-1-4-5 2-6-1 1-3 8-3h7z" fill="#7D9A93"/>
<path transform="translate(396,121)" d="m0 0 5 1-1 6-2 1-3 5-4 1-5-5 1-5 4-3z" fill="#E7A77D"/>
<path transform="translate(229,216)" d="m0 0 13 1 1 5-14 1-12-1v-3z" fill="#3C828B"/>
<path transform="translate(1488,149)" d="m0 0 4 2 11 9 8 9-1 2-8-7-9-5-6-2v-2l-4-2 1-2z" fill="#E69242"/>
<path transform="translate(549,211)" d="m0 0h3l3 6 5 5-8 2-9-1-1-4z" fill="#E9E8E0"/>
<path transform="translate(1039,167)" d="m0 0 4 1-3 8 1 8 1 3 6 2v2h2l-1 4-4-1-4-4-3 2-3-3 1-11 1-9z" fill="#842F23"/>
<path transform="translate(188,141)" d="m0 0h2l11 25 2 6-5 1-5-11-4-15z" fill="#DDE7E5"/>
<path transform="translate(554,203)" d="m0 0h1l2 10 3 3 3 1 1 4-3 6-6 1-5-3v-2l8-1 1-1-6-5-1-2v-8z" fill="#0F0B0A"/>
<path transform="translate(495,403)" d="m0 0 2 3 1 3v20l-2 1-1-12-3-3-3-1-3-6 7-4z" fill="#EE927B"/>
<path transform="translate(626,359)" d="m0 0 14 1 12-1-1 3-8 3-7 2-8-1-4-3v-2h2z" fill="#EABE86"/>
<path transform="translate(1502,136)" d="m0 0 9 2 19 7 13 7 5 5-5-2-10-6-16-6h-19l2-5z" fill="#F7AD55"/>
<path transform="translate(755,402)" d="m0 0 7 3 4 1 1 2 3 1v2l3 1-9 1-10-2-1 13h-1v-16l2-5z" fill="#EE957C"/>
<path transform="translate(1097,165)" d="m0 0h4l1 5-5 7-3 7-4 1-1-7 4-9z" fill="#BC6A36"/>
<path transform="translate(1040,173)" d="m0 0 5 5v2l6 2 1 6-2 3-6-2-3-2-2-6z" fill="#E79246"/>
<path transform="translate(1381,265)" d="m0 0 4 2 5 8 5 4 3 2h-9l-8-1-1-2z" fill="#5C4A3B"/>
<path transform="translate(335,318)" d="m0 0 3 1 11 38 7 21-1 4-9-25-9-31z" fill="#EBCD8F"/>
<path transform="translate(1160,257)" d="m0 0 2 1-1 4v3h-2l-1 11-3 2h-4l-1-8 5-9h2l1-3z" fill="#FFB452"/>
<path transform="translate(413,182)" d="m0 0 2 1-1 11-3 5-7 1 5-10-2 1h-11l1-2 11-2z" fill="#E9BB84"/>
<path transform="translate(1085,106)" d="m0 0h2l2 4 13 3-2 3h-6l-2 3h-8l-1-2v-8z" fill="#C1B899"/>
<path transform="translate(551,79)" d="m0 0h5l2 6v7h-9l-1-1v-10z" fill="#E79344"/>
<path transform="translate(395,409)" d="m0 0h7l3 1 1 6-3 3-9-1-4-4-3-2 7-2z" fill="#E58673"/>
<path transform="translate(350,132)" d="m0 0 2 1-3 5v9l4 9v2l-4 1-4-6-1-4v-11l4-5z" fill="#F0EDE0"/>
<path transform="translate(584,307)" d="m0 0 2 1v13l-2 1-1-7-4-4h-40v-2z" fill="#EEDA98"/>
<path transform="translate(595,119)" d="m0 0 7 3 4 7-1 3h-5l-2-5-5 1-4 1 1-5z" fill="#020102"/>
<path transform="translate(1541,207)" d="m0 0 2 1 1 9v12l-2 12-2 4v-34z" fill="#F4B358"/>
<path transform="translate(146,101)" d="m0 0h6l-2 1v2l-12 5-12 3-2-2v-4l5-1v2z" fill="#89B8AE"/>
<path transform="translate(1450,132)" d="m0 0h8l7 2 8 6 1 5h-3v-2l-5-1-10-6-6-3z" fill="#C77539"/>
<path transform="translate(299,361)" d="m0 0h2l-1 39-2 3-1-20-1-16h2v3h2z" fill="#E9B983"/>
<path transform="translate(202,159)" d="m0 0h2l4 6v4h3v2l4-1-5 5-4 1-3 3h-8l1-2h4l-1-4 5-2v2l3-1-3-5z" fill="#51ABB8"/>
<path transform="translate(1343,66)" d="m0 0 7 1 31 13-3 1-11-4h-5l-11-5-5-2z" fill="#DD8368"/>
<path transform="translate(411,362)" d="m0 0 3 1 1 9 1 31-2-3-2-19-2-11z" fill="#EABE86"/>
<path transform="translate(613,97)" d="m0 0h3l4 5-1 6-14-1 2-4z" fill="#E1914B"/>
<path transform="translate(598,112)" d="m0 0 5 2 10 7-1 2-5 1-6-2-5-2v-5z" fill="#5B4A3B"/>
<path transform="translate(678,404)" d="m0 0 14 7-9 6h-5z" fill="#EF9A7F"/>
<path transform="translate(230,52)" d="m0 0 3 3-1 2h-2l-5 6-4 3v4h-2v2l-4 3h-2l3-10 9-8z" fill="#030B10"/>
<path transform="translate(482,409)" d="m0 0h5l2 5-1 4-13-1v-5l2-2z" fill="#E58673"/>
<path transform="translate(1485,140)" d="m0 0h5l5 2-4 2-4-1 3 6-6 3-5-2v-3l1-4z" fill="#FBAF51"/>
<path transform="translate(1419,81)" d="m0 0 6 2 16 8 17 10-2 1-9-4-16-8-12-8z" fill="#DDCA8A"/>
<path transform="translate(226,51)" d="m0 0 4 1-2 4-10 8-4-1v-3-1l-3 1 1-4 11-2z" fill="#54ABB8"/>
<path transform="translate(717,401)" d="m0 0 2 2 1 14-1 6h-1v-7l-5-2-2-3 1-4z" fill="#F0947D"/>
<path transform="translate(207,191)" d="m0 0h10l7 3-2 2-4 1-3-1-20-1-1-2z" fill="#749899"/>
<path transform="translate(1266,132)" d="m0 0 2 4 4 17v9l-3-4-5-18v-7z" fill="#D5874A"/>
<path transform="translate(215,399)" d="m0 0 4 4 1 5v13h-1l-2-7-2-1v-2h-2l-3-6h2l2-4z" fill="#F0947D"/>
<path transform="translate(190,95)" d="m0 0 3 1 6 16-1 6-3-2-5-10z" fill="#86BFAC"/>
<path transform="translate(360,121)" d="m0 0h5l6 5-1 3-6-4-9 1-10 4h-4l3-3 4-1v-2z" fill="#E7C891"/>
<path transform="translate(1373,197)" d="m0 0 1 3-5 10-3 11-1 1h-34v-1l26-1 6-3 4-9z" fill="#ED9959"/>
<path transform="translate(207,150)" d="m0 0 3 1 4 12v5l-1 1h-5l-2-13z" fill="#88BFAD"/>
<path transform="translate(1085,387)" d="m0 0h41v1l-39 1-23 1-9 7v-3l7-6z" fill="#8FD6AF"/>
<path transform="translate(1131,38)" d="m0 0 2 1-9 10-12 12-1-4 6-7 11-10z" fill="#5C4A3B"/>
<path transform="translate(1099,419)" d="m0 0h23l1 5-1-2h-30l1-2z" fill="#6E8293"/>
<path transform="translate(246,105)" d="m0 0 4 1 6 19v3l-4-1-5-16z" fill="#55AEBA"/>
<path transform="translate(560,228)" d="m0 0 3 1 1 20h2v3l-9 2 1-5 2-3z" fill="#8DC2B2"/>
<path transform="translate(149,215)" d="m0 0 20 1 2 2h-11l6 1v3h-12l-4-1-2-2z" fill="#51716E"/>
<path transform="translate(1536,150)" d="m0 0 9 5 6 3 7 6-2 1v2l-4-1-3-3-3-2v-2l-4-2-6-5z" fill="#E99549"/>
<path transform="translate(555,148)" d="m0 0h11l8 3 1 5-10-2-9-4z" fill="#080808"/>
<path transform="translate(551,144)" d="m0 0h16l5 2 1 4-20-2z" fill="#A69D98"/>
<path transform="translate(299,400)" d="m0 0h1v24l-2 4-3-7-2-6 3-6 2 1z" fill="#EC907A"/>
<path transform="translate(531,215)" d="m0 0 4 1h-2l2 4-1 3-2-2-5-1 2 4v4l-4-1-3-5 2-5z" fill="#1C1A19"/>
<path transform="translate(234,169)" d="m0 0h3l-2 4-12 7-8 3-3-1 13-8z" fill="#7FB6A9"/>
<path transform="translate(322,270)" d="m0 0 2 4 11 35v6l-2-3-6-19-6-21z" fill="#EBCE8E"/>
<path transform="translate(535,243)" d="m0 0 7 1 3 3 6 1 1 3h-4l7 3v1l-7-1-8-4-5-5z" fill="#D1C9A5"/>
<path transform="translate(1187,187)" d="m0 0h1v8l-7 16-5 10-1-4 8-18z" fill="#F8AC59"/>
<path transform="translate(259,346)" d="m0 0h1v17h4v7l-4 4-1 13h-1v-15z" fill="#EBCA8D"/>
<path transform="translate(634,447)" d="m0 0 1 2-3 8h-7l-4-3-1-6 7 3h5z" fill="#F0947D"/>
<path transform="translate(560,409)" d="m0 0h5l3 3-1 4-7 1h-4l-1-5z" fill="#E58673"/>
<path transform="translate(349,207)" d="m0 0 3 1 5 23-4-2-4-16z" fill="#E7A87C"/>
<path transform="translate(429,112)" d="m0 0 2 1 2 9v7l-8-12-2-1h-9l-3 1 1-4 16 2z" fill="#EDAB70"/>
<path transform="translate(140,154)" d="m0 0 3 1 7 14 2 5h-2l-1 2-8-16z" fill="#F3EFE3"/>
<path transform="translate(374,360)" d="m0 0 4 2 1 7-2 3-2-1-1 24h-1v-29z" fill="#EBC98D"/>
<path transform="translate(497,225)" d="m0 0 5 2 10 5 5 2 15 1v1h-22l-6-4-7-6z" fill="#88AAA9"/>
<path transform="translate(409,120)" d="m0 0 8 4 3 7-1 5-5-5-4-6z" fill="#E6C993"/>
<path transform="translate(1246,74)" d="m0 0 4 4 4 12-1 7-2-2-6-17z" fill="#FAB153"/>
<path transform="translate(276,202)" d="m0 0 5 3 2 2 1 5v8h-3l-3-11-2-4z" fill="#51A5AF"/>
<path transform="translate(475,173)" d="m0 0 7 1 1 6h21v1h-24l-7-4z" fill="#5C4A3B"/>
<path transform="translate(153,97)" d="m0 0 3 1-18 7-9 2 1-3 15-6z" fill="#487275"/>
<path transform="translate(1432,508)" d="m0 0 3 6h-54v-1l48-1v-3z" fill="#45635F"/>
<path transform="translate(346,368)" d="m0 0 6 3 4 10 2 3-1 3-5-7-4-2-3-9z" fill="#E9BF85"/>
<path transform="translate(336,101)" d="m0 0 14 6-1 2-2-1v2l-2 1h-6l-2-2z" fill="#E79344"/>
<path transform="translate(1160,89)" d="m0 0h4l7 8v2l-4 3-3-1v-2h-2l-1-6 1-1-2-1z" fill="#D6863C"/>
<path transform="translate(1055,160)" d="m0 0 4 1 4 5-1 5h-6l-2-9z" fill="#0E0807"/>
<path transform="translate(227,62)" d="m0 0 3 1 1 2v7l-4 1-1-5h-5l1-4z" fill="#89D0AE"/>
<path transform="translate(656,373)" d="m0 0h16v1l-14 1-4 17-2 1v-8l2-11z" fill="#EBC88D"/>
<path transform="translate(1101,149)" d="m0 0 6 1-4 4-12 9-2-2 5-5h2l1-4z" fill="#CB7D3C"/>
<path transform="translate(1188,49)" d="m0 0 3 1-3 3-1 5h-2v-3l-11 4h-5l4-3z" fill="#D59E7C"/>
<path transform="translate(854,348)" d="m0 0 2 1v2l-59-1v-1z" fill="#EDD997"/>
<path transform="translate(503,197)" d="m0 0 6 1 4 2v2l-5 3-5-1-2-2v-4z" fill="#181413"/>
<path transform="translate(556,149)" d="m0 0 9 4 14 5v1h-8l-9-3-6-5z" fill="#BEBB8E"/>
<path transform="translate(541,220)" d="m0 0 5 3 4 1-1 5-2 2-4-1-4-5z" fill="#0E0B0A"/>
<path transform="translate(1512,273)" d="m0 0 2 4 4 1 2 1-1 2-6 1-9-1 2-4z" fill="#F4A455"/>
<path transform="translate(1111,57)" d="m0 0 1 2-4 6-5 6-3 2-2 4h-3-3l12-12z" fill="#A39592"/>
<path transform="translate(321,367)" d="m0 0 2 3 3 10v6l-2 2-5-16v-3h2z" fill="#EAC389"/>
<path transform="translate(174,165)" d="m0 0h8l-4 3-14 3h-7v-2z" fill="#D4E1DE"/>
<path transform="translate(408,106)" d="m0 0h8l2 4v3 1h-7v-2h-2z" fill="#E39142"/>
<path transform="translate(562,122)" d="m0 0 4 2-1 5-6 5-4-1z" fill="#6B7378"/>
<path transform="translate(1102,84)" d="m0 0h2l-1 4h5l1 4-7-1-3-3-10 9-2 1 2-4 7-7z" fill="#E5BD7D"/>
<path transform="translate(572,205)" d="m0 0 4 1-1 6-5 5-3-6z" fill="#F4F3EA"/>
<path transform="translate(1378,493)" d="m0 0 3 1 4 9 1 7-3 3-5-18z" fill="#8EB3B7"/>
<path transform="translate(1532,230)" d="m0 0h1v9l-5 15-3 4 1-6z" fill="#F8B556"/>
<path transform="translate(360,131)" d="m0 0 4 2 2 6-1 5-4-1-1-1z" fill="#EBDBB0"/>
<path transform="translate(183,56)" d="m0 0h10l-3 4h-2v2h-8l-1-2-3-2z" fill="#80A5AA"/>
<path transform="translate(395,98)" d="m0 0 9 6-2 6-4-1-1 2z" fill="#E89747"/>
<path transform="translate(210,199)" d="m0 0 3 1-1 3h2l2 4 2 1h8l3-1v3h-14v-2l-4-2-5-5z" fill="#31676F"/>
<path transform="translate(1093,174)" d="m0 0h4l-1 6-2 4-4 1-1-7z" fill="#DF8A47"/>
<path transform="translate(1172,222)" d="m0 0 2 3 1 6-2 3-5-1-1-4z" fill="#FDB253"/>
<path transform="translate(281,189)" d="m0 0 5 2 2 5h-5-2l-3 2-4-5 5-1z" fill="#68A399"/>
<path transform="translate(545,117)" d="m0 0 7 2 1 4-5 1v3l-3-1-1-8z" fill="#D7C095"/>
<path transform="translate(139,112)" d="m0 0h7l-3 3-7 3-7 1v-4z" fill="#B6B5AA"/>
<path transform="translate(174,84)" d="m0 0h1l1 14-5-2-1-2-4 2-2-2 5-1 1-4h3z" fill="#788EA2"/>
<path transform="translate(720,319)" d="m0 0h3l1 2v23l-2 1-1-22z" fill="#EBCC8D"/>
<path transform="translate(157,109)" d="m0 0 6 1 1 3-10 4h-3l1-6z" fill="#5C4B3D"/>
<path transform="translate(596,373)" d="m0 0h5l1 2 1 11-3 1-4-10-2-3z" fill="#EAC288"/>
<path transform="translate(1106,84)" d="m0 0 5 1 2 1-2 10-2 2-1-9-5-1 1-3z" fill="#B96F36"/>
<path transform="translate(217,367)" d="m0 0h1l2 17v17h-1l-2-22-1-9z" fill="#EABE86"/>
<path transform="translate(535,215)" d="m0 0 4 1 2 4-1 4h-3l-3-1-1-7z" fill="#E0E8DF"/>
<path transform="translate(560,221)" d="m0 0h3l-1 5-3 2-5-1-4-2v-2l8-1z" fill="#201915"/>
<path transform="translate(283,201)" d="m0 0h7l1 1-1 9-3-1-4-8z" fill="#578D96"/>
<path transform="translate(1037,173)" d="m0 0 1 2-2 12-1 2-4-1v-6l3-5h2z" fill="#DF8A49"/>
<path transform="translate(275,173)" d="m0 0h5l10 7v2l-6-1-9-7z" fill="#CBDEDA"/>
<path transform="translate(223,73)" d="m0 0h5l-2 2-10 3-9 4-4-1 8-5z" fill="#77A1AD"/>
<path transform="translate(507,261)" d="m0 0h1l-1 20-1 5h-1l-1-18-4-2 6-1z" fill="#ECCD90"/>
<path transform="translate(151,113)" d="m0 0h2l-1 3-9 5-5 2h-5l1-2 9-4z" fill="#929394"/>
<path transform="translate(613,97)" d="m0 0 3 1h-2l4 8h-11z" fill="#CE7E39"/>
<path transform="translate(1040,181)" d="m0 0 4 3 8 3-2 4-6-2-3-2z" fill="#D38245"/>
<path transform="translate(567,209)" d="m0 0 2 1v3l2 6-7-1-4-2h4l-1-4z" fill="#E0D4A8"/>
<path transform="translate(179,361)" d="m0 0 4 3v3h2v4l-5 2h-1z" fill="#E9BE85"/>
<path transform="translate(1093,99)" d="m0 0 6 1 1 4-1 2-10-3z" fill="#C97E41"/>
<path transform="translate(1307,58)" d="m0 0 15 1 3 2h-15l-17-1v-1z" fill="#DA8167"/>
<path transform="translate(406,145)" d="m0 0h2l4 6 2 2h-8l-2 1-1-6h2z" fill="#E9BA83"/>
<path transform="translate(360,121)" d="m0 0h5l6 5-1 3-6-4h-6v-2l-3-1z" fill="#E2C18F"/>
<path transform="translate(145,113)" d="m0 0h3v3l-11 5-3-1 5-5z" fill="#241D19"/>
<path transform="translate(1024,162)" d="m0 0h2v4h2v4h2v2l-5 3-1-1z" fill="#E8C97E"/>
<path transform="translate(307,152)" d="m0 0 6 2 1 2-5 2 1 2-5 2-1-4z" fill="#E5A87F"/>
<path transform="translate(126,105)" d="m0 0h3v2l6 1-4 3-5 1-2-2v-4z" fill="#88B3AC"/>
<path transform="translate(946,481)" d="m0 0h1l1 18 1 9-4 2z" fill="#8EABBA"/>
<path transform="translate(150,424)" d="m0 0h18l-3 4v-2h-21v-1z" fill="#EA977F"/>
<path transform="translate(1530,265)" d="m0 0 2 1-8 11-3 3-2-1 6-9z" fill="#F1B96D"/>
<path transform="translate(1077,187)" d="m0 0h2l5 10 3 4-1 2-8-9-2-6z" fill="#E69B78"/>
<path transform="translate(429,131)" d="m0 0h1v16l-2 5-6 1-2-2 6-3 2-2z" fill="#E9B783"/>
<path transform="translate(1461,133)" d="m0 0 5 2 7 5 1 5h-3v-2l-4-1-1-4z" fill="#E28D42"/>
<path transform="translate(1359,431)" d="m0 0h2l5 13-1 5-2-3-4-12z" fill="#8CB0B7"/>
<path transform="translate(824,388)" d="m0 0h32v5h-2v-2l-3-1-27-1z" fill="#EABE86"/>
<path transform="translate(1372,140)" d="m0 0h13l13 2-2 2-12-1-1-1-11-1z" fill="#E68E53"/>
<path transform="translate(167,104)" d="m0 0 4 1-8 5-6-1 1-3z" fill="#BDD1C3"/>
<path transform="translate(437,161)" d="m0 0 2 2 1 12-3 6-1-3z" fill="#E7B981"/>
<path transform="translate(1544,164)" d="m0 0 7 1 5 2v-2l4 1 4 3v2l-11-3-9-3z" fill="#824E30"/>
<path transform="translate(1174,219)" d="m0 0 1 2h26v1h-26v7l-2-4z" fill="#E58B6B"/>
<path transform="translate(531,201)" d="m0 0 4 1-3 5-2 2h-4l1-4z" fill="#0D0C0C"/>
<path transform="translate(1105,160)" d="m0 0h6l-9 9-2-1-1-4 5-1z" fill="#DC8842"/>
<path transform="translate(591,146)" d="m0 0 4 1 1 4v5h-3l-2-5z" fill="#DDD5BE"/>
<path transform="translate(1466,106)" d="m0 0 11 6v3h-6l-1-5-4-1z" fill="#F7AD56"/>
<path transform="translate(1398,409)" d="m0 0 2 2 5 15v5l-2-3-4-10z" fill="#8CACB8"/>
<path transform="translate(328,294)" d="m0 0h2l5 15v6l-2-3-5-15z" fill="#ECD392"/>
<path transform="translate(403,207)" d="m0 0 4 1v3l-3 2h-6l2-5z" fill="#E9BD85"/>
<path transform="translate(1499,166)" d="m0 0 4 2 6 5 3 5-3 1-7-8-3-3z" fill="#A04739"/>
<path transform="translate(523,164)" d="m0 0 6 1 6 3-3 1-1 2-9-4z" fill="#D97F5D"/>
<path transform="translate(1520,262)" d="m0 0h2l-2 4-6 7-4 3-2-1 7-8z" fill="#F7BF64"/>
<path transform="translate(1528,189)" d="m0 0 4 2 2 7h-7l-1-2h2z" fill="#FFB452"/>
<path transform="translate(203,171)" d="m0 0 2 4-2 4h-8l1-2h4l-1-4z" fill="#70BCB0"/>
<path transform="translate(432,131)" d="m0 0h2l1 4v11l-3-2z" fill="#E7C77F"/>
<path transform="translate(166,107)" d="m0 0 3 1v5l-6 2-4-1 4-2v-3z" fill="#41342A"/>
<path transform="translate(1441,93)" d="m0 0 5 1 12 7-2 1-9-4-6-3z" fill="#E5CC87"/>
<path transform="translate(351,218)" d="m0 0 4 2 2 11-4-2-2-6z" fill="#E9CB92"/>
<path transform="translate(237,176)" d="m0 0h3l-2 4-10 4-3-1z" fill="#427D85"/>
<path transform="translate(551,144)" d="m0 0h13l-1 3h-11z" fill="#E6C57E"/>
<path transform="translate(1061,108)" d="m0 0h3v3l2 1-6 4-3-1 1-4z" fill="#F0CCAC"/>
<path transform="translate(161,98)" d="m0 0 6 1-4 2-10 3h-3v-2z" fill="#81AEA0"/>
<path transform="translate(409,165)" d="m0 0 5 1-3 5h-5l-1-3z" fill="#16110E"/>
<path transform="translate(174,102)" d="m0 0h4l3 9h-5z" fill="#C2DBD3"/>
<path transform="translate(1539,234)" d="m0 0h1v15l-2 4-2-4 2-7z" fill="#FBB354"/>
<path transform="translate(156,218)" d="m0 0 10 1v3h-12z" fill="#5B4B3B"/>
<path transform="translate(154,170)" d="m0 0 10 1-4 2-9 2 1 3h-2l1-7z" fill="#8DC8AC"/>
<path transform="translate(1496,149)" d="m0 0 4 1 14 11-2 2-14-12z" fill="#E5BC7A"/>
<path transform="translate(351,109)" d="m0 0 3 1-14 8-5 2 1-3z" fill="#E6B280"/>
<path transform="translate(177,44)" d="m0 0h5l1 7-5 1z" fill="#3C5A5A"/>
<path transform="translate(1278,59)" d="m0 0h6v1l-5 1 1 2-12 4-3-1 8-3v-2z" fill="#E48B5A"/>
<path transform="translate(1432,508)" d="m0 0 3 6h-17v-1l11-1v-3z" fill="#5B787A"/>
<path transform="translate(628,329)" d="m0 0h2l2 7v11l-2-4z" fill="#EBCD90"/>
<path transform="translate(405,187)" d="m0 0h4v3l-2 1h-11l1-2z" fill="#CE7965"/>
<path transform="translate(311,156)" d="m0 0 5 1 3 4-2 3-3-4-6-1z" fill="#ECC891"/>
<path transform="translate(601,150)" d="m0 0 6 1 1 4-7 1z" fill="#D6C492"/>
<path transform="translate(170,93)" d="m0 0 1 3 4 1-3 2h-7l-2-2 6-3z" fill="#87ACB0"/>
<path transform="translate(344,348)" d="m0 0h2l4 11v5l-2-1-4-13z" fill="#EBD191"/>
<path transform="translate(563,217)" d="m0 0 7 2-2 4-5 2z" fill="#90C2B2"/>
<path transform="translate(276,202)" d="m0 0 5 3 2 2-1 4-5-3z" fill="#499CA8"/>
<path transform="translate(350,107)" d="m0 0 16 2-4 2h-9l-3-1z" fill="#EAA172"/>
<path transform="translate(1160,89)" d="m0 0h4l3 4v2l-4 1-1 3-1-6 1-1-2-1z" fill="#DB8460"/>
<path transform="translate(1181,52)" d="m0 0 3 1-5 4-5 2h-5l4-3z" fill="#E69577"/>
<path transform="translate(642,423)" d="m0 0h2l-2 10-3 7-1-3z" fill="#EC9079"/>
<path transform="translate(563,241)" d="m0 0h1v8h2v3l-7 1v-3l3-3z" fill="#8FB1B9"/>
<path transform="translate(223,175)" d="m0 0 2 1-2 4-8 3-3-1z" fill="#72A3A0"/>
<path transform="translate(160,172)" d="m0 0h5l-2 2-7 2-4 4-1-5z" fill="#59B3C0"/>
<path transform="translate(1116,68)" d="m0 0 4 4-6 2-4-1 1-3z" fill="#F4A658"/>
<path transform="translate(1032,175)" d="m0 0 2 4-2 3-1 5h-2l-1-4z" fill="#F1A656"/>
<path transform="translate(568,158)" d="m0 0 12 1 2-1 1 4-10-1-5-2z" fill="#7DAAA1"/>
<path transform="translate(1111,57)" d="m0 0 1 2-4 6-3 3h-2l2-5z" fill="#8796B5"/>
<path transform="translate(1383,500)" d="m0 0 2 4 1 6-3 3-1-9z" fill="#8EAFB8"/>
<path transform="translate(188,141)" d="m0 0h2l4 9-1 2-2 1-3-8z" fill="#8AB2AA"/>
<path transform="translate(1117,128)" d="m0 0 1 3-6 4-5 4-2-1 5-5z" fill="#FFB452"/>
<path transform="translate(339,130)" d="m0 0 4 1-5 9-2-4z" fill="#E69A6D"/>
<path transform="translate(1119,121)" d="m0 0 4 1-1 4-4 1-3-3z" fill="#5D4C3F"/>
<path transform="translate(408,106)" d="m0 0h8l1 3-9 1z" fill="#D48254"/>
<path transform="translate(551,79)" d="m0 0h5l1 1v7l-4-5h-2l-2 2v-4z" fill="#F1AD4D"/>
<path transform="translate(572,235)" d="m0 0h1l2 13-5 3z" fill="#5B5041"/>
<path transform="translate(352,208)" d="m0 0 2 4h2l1 5-3 3-2-8z" fill="#65261B"/>
<path transform="translate(300,208)" d="m0 0h3l-2 5-5 4-2-1z" fill="#D8AD88"/>
<path transform="translate(1084,184)" d="m0 0h2l4 8 3 3-1 2-6-7-4-5z" fill="#705243"/>
<path transform="translate(209,170)" d="m0 0h6l-5 5-4 1v-2l-2-1h4z" fill="#3E6467"/>
<path transform="translate(1039,167)" d="m0 0 4 1-2 5h-4l1-5z" fill="#391712"/>
<path transform="translate(1102,86)" d="m0 0 1 2h5l1 4-7-1-2-4z" fill="#E79E75"/>
<path transform="translate(172,80)" d="m0 0 2 3v5l-4-1-4 1 5-5z" fill="#8DCCB0"/>
<path transform="translate(540,244)" d="m0 0 4 2 7 2 1 3-8-1-4-4z" fill="#B1A895"/>
<path transform="translate(1126,116)" d="m0 0 1 4-7 2-1-2 2-3z" fill="#DC8A44"/>
<path transform="translate(197,114)" d="m0 0 3 1 2 9-3-1-2-5z" fill="#3F838B"/>
<path transform="translate(139,112)" d="m0 0h7l-3 3-6 2v-4z" fill="#CFB38F"/>
<path transform="translate(156,111)" d="m0 0h7l1 2-9 3z" fill="#7E91AD"/>
</svg>
